<?xml version="1.0" standalone="no"?>
<!DOCTYPE svg PUBLIC "-//W3C//DTD SVG 1.1//EN" "http://www.w3.org/Graphics/SVG/1.1/DTD/svg11.dtd" >
<!--
2013-9-30: Created.
-->
<svg>
<metadata>
Created by iconfont
</metadata>
<defs>

<font id="iconfont" horiz-adv-x="1024" >
  <font-face
    font-family="iconfont"
    font-weight="500"
    font-stretch="normal"
    units-per-em="1024"
    ascent="896"
    descent="-128"
  />
    <missing-glyph />
    
    <glyph glyph-name="tuichu" unicode="&#58911;" d="M223.61-49.9c-61.62 0-111.76 50.14-111.76 111.76V705.71c0 61.62 50.14 111.76 111.76 111.76l447.74 0.01c61.62 0 111.76-50.14 111.76-111.76v-63.43c0-13.25-10.75-24-24-24s-24 10.75-24 24v63.43c0 35.16-28.6 63.76-63.76 63.76l-447.74-0.01c-35.16 0-63.76-28.6-63.76-63.76v-643.85c0-35.16 28.6-63.76 63.76-63.76l447.74 0.01c35.16 0 63.76 28.6 63.76 63.76V146.2c0 13.25 10.75 24 24 24s24-10.75 24-24v-84.33c0-61.62-50.14-111.76-111.76-111.76l-447.74-0.01zM888.08 359.8H422.87c-13.25 0-24 10.75-24 24s10.75 24 24 24h465.21c13.25 0 24-10.75 24-24s-10.75-24-24-24zM696.55 168.27c-6.14 0-12.28 2.34-16.97 7.03-9.37 9.37-9.37 24.57 0 33.94L854.14 383.8 679.58 558.36c-9.37 9.37-9.37 24.57 0 33.94 9.37 9.37 24.57 9.37 33.94 0l191.53-191.53c9.37-9.37 9.37-24.57 0-33.94L713.52 175.3a23.919 23.919 0 0 0-16.97-7.03z"  horiz-adv-x="1024" />

    
    <glyph glyph-name="tujingdianX" unicode="&#58959;" d="M250.794909 119.350197a437.514533 437.514533 0 0 0-35.785896 34.316119l-8.30744 7.955971A448.122495 448.122495 0 0 0 96.627991 456.2808C96.627991 699.113668 289.744023 896 527.975847 896S959.323702 699.145619 959.323702 456.2808c0-152.537383-76.204788-286.926203-191.901868-365.814933l-224.077223-209.85872a31.951693 31.951693 0 0 0-43.96553 0.287565l-248.584172 238.455485zM271.56351 143.633484l249.926143-239.701601 224.077223 209.85872 3.834203 3.099314C859.762227 192.072251 927.372009 318.249487 927.372009 456.2808 927.372009 681.636091 748.442528 864.048307 527.975847 864.048307S128.579684 681.60414 128.579684 456.2808a410.898772 410.898772 0 0 1 102.469079-272.7077l6.03887-6.837662c11.790175-12.525064 22.845461-23.164977 34.475877-33.101954z m-20.768601-24.283287a437.514533 437.514533 0 0 0-35.785896 34.316119l-8.30744 7.955971A448.122495 448.122495 0 0 0 96.627991 456.2808C96.627991 699.113668 289.744023 896 527.975847 896S959.323702 699.145619 959.323702 456.2808c0-152.537383-76.204788-286.926203-191.901868-365.814933l-224.077223-209.85872a31.951693 31.951693 0 0 0-43.96553 0.287565l-248.584172 238.455485zM482.476636 424.456914l33.101954-16.103653c-14.314358-32.207307-30.865335-60.3887-50.100255-84.096856l-31.759983 22.366185c18.787596 21.918861 34.891249 47.863636 48.758284 77.834324z m166.404417 3.57859c23.708156-31.312659 42.048428-59.046729 54.573492-82.754885l-33.101954-23.260833c-12.972387 25.944775-30.865335 55.020815-53.231521 86.333475l31.759983 19.682243z m-95.279949 226.793117h33.996602c24.15548-38.469838 66.651232-72.019116 126.592608-101.54248l-22.366186-33.996602a378.21219 378.21219 0 0 0-40.706457 22.366185v-26.839422h-57.704757v-39.364486h104.226423v-38.022514h-104.226423v-84.54418c0-27.73407-13.419711-42.048428-40.259133-42.048428H514.236619l-9.393798 39.811809c11.630416-1.789295 23.260833-2.683942 33.996601-2.683942 8.946474 0 13.867035 5.367884 13.867035 15.209006v74.255735h-104.673746v38.022514h104.673746V514.816302h-62.625318v23.260833a406.425535 406.425535 0 0 0-38.469839-21.918862l-22.366185 33.549278c53.678844 26.839422 95.279949 62.177995 124.355989 105.12107z m-44.285046-102.884452h126.592608c-27.286746 19.682243-49.205607 41.153781-65.309261 64.414614a311.59291 311.59291 0 0 0-61.283347-64.414614zM348.726849 651.250031c30.418012-23.708156 55.915463-47.416312 76.492353-70.677145l-29.970688-29.523364c-17.892948 22.366185-42.943075 46.521665-75.597706 72.46644l29.076041 27.734069z m257.658452-400.802037c-24.602804 0-51.442226 0.447324-80.518266 0.894647-29.076041 0.447324-52.784197 3.131266-71.124469 7.604503-17.892948 5.367884-33.996601 16.103653-47.416312 31.312659-6.262532 7.604503-11.630416 11.183093-16.998301 11.183093-9.393798 0-25.497451-20.129567-48.31096-60.3887l-31.312659 29.076041c22.366185 36.23322 42.495752 59.046729 60.3887 67.993203v126.592607H311.151658v39.364486h99.753185v-169.088359c2.236619-1.789295 4.473237-4.025913 6.709856-6.709856 10.735769-12.07774 21.471538-21.024214 32.207306-26.839422 13.419711-6.262532 33.549278-10.288445 59.941376-11.183093 25.497451-0.447324 55.915463-0.894647 90.806712-0.894647 21.471538 0 43.837723 0.447324 66.203908 0.894647a966.858231 966.858231 0 0 1 51.442226 2.236619l-10.288445-42.048428h-101.542481z"  horiz-adv-x="1024" />

    
    <glyph glyph-name="icon-test1" unicode="&#58890;" d="M870.018887 349.353383c0 19.24812 19.24812 38.496241 38.496241 38.496241 23.097744 0 38.496241-19.24812 38.49624-38.496241v-146.285714c0-50.045113-19.24812-96.240602-53.894736-130.887218-30.796992-34.646617-76.992481-53.894737-130.887218-53.894737H115.492571a38.496241 38.496241 0 0 0-38.49624 38.496241c0 23.097744 19.24812 38.496241 38.49624 38.49624h646.736843c30.796992 0 57.744361 11.548872 76.992481 30.796993a107.789474 107.789474 0 0 1 30.796992 76.992481v146.285714zM735.282045 830.556391a37.341353 37.341353 0 0 0 0 53.894737c15.398496 15.398496 42.345865 15.398496 57.744361 0l142.43609-146.285714c15.398496-15.398496 15.398496-38.496241 0-53.894737l-142.43609-146.285715c-15.398496-15.398496-42.345865-15.398496-57.744361 0a37.341353 37.341353 0 0 0 0 53.894737l119.338346 119.338346-119.338346 119.338346zM288.725654-62.556391c15.398496-15.398496 15.398496-38.496241 0-53.894737-15.398496-15.398496-38.496241-15.398496-53.894737 0l-146.285714 146.285714a37.341353 37.341353 0 0 0 0 53.894737l146.285714 146.285715c15.398496 15.398496 38.496241 15.398496 53.894737 0 15.398496-15.398496 15.398496-38.496241 0-53.894737l-115.488722-119.338346 115.488722-119.338346zM153.988812 418.646617a38.496241 38.496241 0 0 0-38.496241-38.496241c-19.24812 0-38.496241 19.24812-38.49624 38.496241V564.932331A183.242105 183.242105 0 0 0 261.778286 749.714286h646.736842c23.097744 0 38.496241-15.398496 38.49624-38.496241 0-23.097744-15.398496-38.496241-38.49624-38.49624H261.778286C230.981293 672.721805 207.883549 661.172932 188.635429 641.924812 169.387308 622.676692 153.988812 595.729323 153.988812 564.932331v-146.285714z"  horiz-adv-x="1024" />

    
    <glyph glyph-name="round1" unicode="&#59053;" d="M511.627-127.952C229.876-127.952 0.679 101.244 0.679 382.996S229.876 893.943 511.627 893.943s510.947-229.196 510.947-510.947-229.196-510.948-510.947-510.948z m0 948.902c-241.495 0-437.955-196.46-437.955-437.955S270.131-54.96 511.627-54.96 949.582 141.5 949.582 382.995 753.122 820.95 511.627 820.95z"  horiz-adv-x="1024" />

    
    <glyph glyph-name="round" unicode="&#58978;" d="M1024 384c0-282.784-229.216-512-512-512S0 101.216 0 384 229.216 896 512 896s512-229.216 512-512z"  horiz-adv-x="1024" />

    
    <glyph glyph-name="caiwu" unicode="&#59140;" d="M860.928 609.088l-688 0c-61.76 0-112-50.24-112-112l0-424c0-61.76 50.24-112 112-112l688 0c61.744 0 112 50.24 112 112l0 424C972.928 558.864 922.672 609.088 860.928 609.088zM908.928 73.088c0-26.464-21.536-48-48-48l-688 0c-26.464 0-48 21.536-48 48l0 424c0 26.464 21.536 48 48 48l688 0c26.464 0 48-21.536 48-48L908.928 73.088zM665.84 312c13.824 0 25.072 11.232 25.072 25.072s-11.248 25.088-25.072 25.088L572 362.16l95.696 95.68c9.792 9.808 9.792 25.68 0 35.472-9.792 9.808-25.664 9.808-35.472 0l-113.936-113.968-113.968 113.968c-9.792 9.808-25.664 9.808-35.472 0-9.792-9.776-9.792-25.664 0-35.472l95.696-95.68L368 362.16c-13.856 0-25.072-11.248-25.072-25.088S354.144 312 368 312l123.84 0 0-55.264L368 256.736c-13.856 0-25.072-11.232-25.072-25.088 0-13.84 11.216-25.056 25.072-25.056l123.84 0 0-118.16c0-13.84 11.216-25.072 25.072-25.072 13.84 0 25.072 11.232 25.072 25.072l0 118.16 123.84 0c13.824 0 25.072 11.216 25.072 25.056 0 13.856-11.248 25.088-25.072 25.088l-123.84 0L541.984 312 665.84 312zM175.92 648.832 857.92 648.832c17.664 0 32 14.336 32 32 0 17.68-14.336 32-32 32L175.92 712.832c-17.664 0-32-14.32-32-32C143.92 663.168 158.256 648.832 175.92 648.832zM260.928 751.488l512 0c17.664 0 32 14.336 32 32 0 17.68-14.336 32-32 32l-512 0c-17.664 0-32-14.32-32-32C228.928 765.824 243.248 751.488 260.928 751.488z"  horiz-adv-x="1024" />

    
    <glyph glyph-name="xinyong" unicode="&#58882;" d="M512.361327-128c-93.222301 0-184.999294 25.292872-264.491179 73.710656-16.62103 10.117149-22.402258 31.796754-12.285109 48.417784 10.117149 16.62103 31.796754 22.402258 49.140437 12.28511 68.652082-41.191249 147.421313-62.870854 227.635851-62.870854 242.811574 0 440.818631 197.284404 440.818631 439.373324s-198.007057 439.373324-440.818631 439.373324-440.818631-197.284404-440.818631-439.373324c0-85.273112 24.570219-168.378264 71.542696-239.92096 10.839802-16.62103 5.781228-38.300635-10.117149-49.140438-16.62103-10.839802-38.300635-5.781228-49.140438 10.117149C28.90614 186.35427 0 283.189838 0 382.193366c0 136.58151 53.476359 264.491179 150.311927 361.326747C246.424841 839.633028 375.057163 893.109386 512.361327 893.109386c136.58151 0 265.213832-53.476359 362.0494-149.589273 96.835568-96.112915 150.311927-224.745236 150.311926-361.326747s-53.476359-264.491179-150.311926-361.326746c-96.835568-96.112915-225.46789-148.86662-362.0494-148.86662zM289.784051 653.188426c13.007763 12.285109 35.410021 2.890614 35.410021-15.898377v-506.580098c0-12.285109-9.394495-20.956951-20.956951-20.956952H303.514467c-11.562456 0-20.956951 8.671842-20.956951 20.956952V588.872265l-39.023289-36.855328c-8.671842-7.949188-21.679605-7.226535-28.906139 0.722654-4.335921 5.058574-6.503881 9.394495-6.503882 15.898377 0 5.781228 2.890614 10.839802 7.226535 14.453069l74.43331 70.097389z m465.388849-15.898377c11.562456 0 20.956951-9.394495 20.956952-20.956951v-1.445307c0-11.562456-9.394495-20.956951-20.956952-20.956951H392.400847c-11.562456 0-20.956951 9.394495-20.956951 20.956951v1.445307c0 11.562456 9.394495 20.956951 20.956951 20.956951h159.706422v25.292873c0 12.285109 9.394495 20.956951 20.956951 20.956951h0.722654c11.562456 0 20.956951-8.671842 20.956951-20.956951v-25.292873h160.429075z m-373.611856-361.326746c0 8.671842 2.16796 18.066337 5.058575 26.015526 11.562456 24.570219 33.964714 41.913903 62.1482 41.913902h249.315456c18.066337 0 34.687368-7.949188 47.69513-20.234298 13.007763-13.007763 20.234298-29.628793 20.234298-47.69513v-99.003529c0-28.183486-16.62103-51.308398-41.913903-62.1482-7.949188-3.613267-16.62103-5.058574-26.015525-5.058575H448.767819c-36.855328 0-67.206775 29.628793-67.206775 67.206775V275.963303z m358.436133 257.987297c11.562456 0 20.956951-9.394495 20.956951-20.956951v-1.445307c0-10.839802-9.394495-20.956951-20.956951-20.956952H406.853917c-11.562456 0-20.956951 10.117149-20.956952 20.956952V512.993649c0 11.562456 9.394495 20.956951 20.956952 20.956951h333.14326z m0-101.171489c11.562456 0 20.956951-10.117149 20.956951-20.956952v-1.445306c0-11.562456-9.394495-20.956951-20.956951-20.956952H406.853917c-11.562456 0-20.956951 9.394495-20.956952 20.956952V411.822159c0 10.839802 9.394495 20.956951 20.956952 20.956952h333.14326zM424.197601 176.959774c0-14.45307 9.394495-24.570219 23.847565-24.570219h249.315455c14.45307 0 24.570219 10.117149 24.570219 24.570219V275.963303c0 13.730416-10.117149 23.847565-24.570219 23.847565H448.767819c-14.45307 0-23.847565-10.117149-23.847565-23.847565l-0.722653-99.003529z"  horiz-adv-x="1024" />

    
    <glyph glyph-name="icon-test" unicode="&#58883;" d="M987.43004 54.86a36.58 36.58 0 0 0-36.58 36.58V676.58a109.84 109.84 0 0 1-109.72 109.72H402.29004a109.84 109.84 0 0 1-109.72-109.72v-129.28L73.15004 401v-309.58a36.58 36.58 0 1 0-73.14 0V440.14l219.42 146.28v90.16a183.08 183.08 0 0 0 182.86 182.86h438.86A183.08 183.08 0 0 0 1024.01004 676.58v-585.16a36.58 36.58 0 0 0-36.58-36.56zM219.43004-91.42a146.28 146.28 0 1 0 146.28 146.28 146.46 146.46 0 0 0-146.28-146.28z m0 219.42a73.14 73.14 0 1 1 73.14-73.14A73.22 73.22 0 0 1 219.43004 128zM804.59004-91.42a146.28 146.28 0 1 0 146.28 146.28 146.46 146.46 0 0 0-146.28-146.28z m0 219.42a73.14 73.14 0 1 1 73.14-73.14A73.22 73.22 0 0 1 804.59004 128zM292.59004 237.72H146.29004a36.58 36.58 0 1 0 0 73.14h146.28a36.58 36.58 0 1 0 0-73.14zM292.59004 237.72A36.58 36.58 0 0 0 256.01004 274.28v146.3a36.58 36.58 0 0 0 73.14 0v-146.28a36.58 36.58 0 0 0-36.56-36.58zM658.29004 18.28H365.73004a36.58 36.58 0 0 0 0 73.14h292.56a36.58 36.58 0 0 0 0-73.14z"  horiz-adv-x="1026" />

    
    <glyph glyph-name="kucunqingkuang" unicode="&#58957;" d="M61.44 834.56h286.72c20.48 0 40.96 0 61.44-20.48 0 0 20.48-20.48 20.48-40.96v-286.72c0-20.48-20.48-40.96-20.48-40.96-20.48-20.48-40.96-20.48-61.44-20.48H61.44c-20.48 0-20.48 0-40.96 20.48-20.48 0-20.48 20.48-20.48 40.96V773.12c0 20.48 0 40.96 20.48 40.96 20.48 20.48 20.48 20.48 40.96 20.48z m286.72-40.96H61.44 40.96v-327.68h327.68l20.48 20.48V773.12l-20.48 20.48h-20.48zM61.44 302.08h286.72c20.48 0 40.96-20.48 61.44-20.48 0-20.48 20.48-40.96 20.48-61.44v-266.24c0-20.48-20.48-40.96-20.48-61.44-20.48-20.48-40.96-20.48-61.44-20.48H61.44c-20.48 0-20.48 0-40.96 20.48s-20.48 40.96-20.48 61.44V220.16c0 20.48 0 40.96 20.48 61.44 20.48 0 20.48 20.48 40.96 20.48z m286.72-40.96H61.44s0-20.48-20.48-20.48v-327.68h327.68c0 20.48 20.48 20.48 20.48 40.96V220.16c0 20.48-20.48 20.48-20.48 20.48l-20.48 20.48zM798.72 875.52l204.8-204.8c20.48 0 20.48-20.48 20.48-40.96s0-40.96-20.48-40.96L798.72 384c0-20.48-20.48-20.48-40.96-20.48s-40.96 0-61.44 20.48l-184.32 204.8c-20.48 0-20.48 20.48-20.48 40.96s0 40.96 20.48 40.96l184.32 204.8h20.48c0 20.48 20.48 20.48 40.96 20.48s40.96 0 40.96-20.48z m184.32-225.28L778.24 855.04h-20.48-20.48L532.48 650.24v-40.96l204.8-204.8h40.96l204.8 204.8v20.48 20.48zM614.4 302.08h286.72c20.48 0 40.96-20.48 40.96-20.48 20.48-20.48 20.48-40.96 20.48-61.44v-266.24c0-20.48 0-40.96-20.48-61.44 0-20.48-20.48-20.48-40.96-20.48H614.4c-20.48 0-20.48 0-40.96 20.48s-20.48 40.96-20.48 61.44V220.16c0 20.48 0 40.96 20.48 61.44 20.48 0 20.48 20.48 40.96 20.48z m286.72-40.96H614.4s0-20.48-20.48-20.48v-327.68h327.68V220.16v20.48l-20.48 20.48z"  horiz-adv-x="1024" />

    
    <glyph glyph-name="chanpinshengchanqingkuang" unicode="&#58920;" d="M512-128C229.21216-128 0 101.21216 0 384S229.21216 896 512 896 1024 666.78784 1024 384 794.78784-128 512-128z m-245.76 368.64a61.44 61.44 0 0 1 0-122.88h491.52a61.44 61.44 0 0 1 0 122.88h-491.52z m204.8-40.96h81.92a20.48 20.48 0 0 0 0-40.96h-81.92a20.48 20.48 0 0 0 0 40.96zM409.6 691.2a81.92 81.92 0 0 1-81.92-81.92v-327.68h368.64V609.28a81.92 81.92 0 0 1-81.92 81.92h-204.8z m20.48-81.92h163.84a20.48 20.48 0 0 0 0-40.96h-163.84a20.48 20.48 0 0 0 0 40.96z m0-122.88h163.84a20.48 20.48 0 0 0 0-40.96h-163.84a20.48 20.48 0 0 0 0 40.96z m0-122.88h163.84a20.48 20.48 0 0 0 0-40.96h-163.84a20.48 20.48 0 0 0 0 40.96z"  horiz-adv-x="1024" />

    
    <glyph glyph-name="qita" unicode="&#59298;" d="M1002.438968 575.793731a510.444749 510.444749 0 0 1-109.505897 167.192391C748.949158 889.340498 529.685354 936.875744 336.055617 858.658371 73.93449 752.743606-52.708037 454.396148 53.198853 192.27502c105.90689-262.129003 404.254348-388.771529 666.375476-282.86464 125.847122 50.842867 224.114982 147.83493 277.351937 269.744408a39.376446 39.376446 0 0 1-72.169151 31.516908c-45.07028-103.213541-128.130956-185.195302-234.68362-228.241634-221.791771-89.612916-474.249919 17.546144-563.85496 239.345791-89.612916 221.791771 17.546144 474.249919 239.345791 563.854961 163.853268 66.199681 349.387208 25.972704 471.233684-97.86622a431.699731 431.699731 0 0 0 92.621276-141.479571 39.376446 39.376446 0 1 1 73.019682 29.500833zM291.560233 387.968083a59.025293 59.025293 0 0 1 29.642589-51.150004 59.48206 59.48206 0 0 1 59.285177 0 59.025293 59.025293 0 0 1 29.642589 51.150004 59.025293 59.025293 0 0 1-29.642589 51.150003 59.48206 59.48206 0 0 1-59.285177 0A59.025293 59.025293 0 0 1 291.560233 387.968083z m177.272761 0c0-32.619448 26.539725-59.064669 59.277303-59.06467 32.745453 0 59.293053 26.445221 59.293052 59.06467 0 32.619448-26.539725 59.064669-59.293052 59.064669-32.737577 0-59.285178-26.445221-59.285178-59.064669z m176.674239 0c0-32.619448 26.539725-59.064669 59.285178-59.06467C737.537864 328.903413 764.077589 355.348635 764.077589 387.968083c0 32.619448-26.539725 59.064669-59.285178 59.064669-32.745453 0-59.285178-26.445221-59.285178-59.064669z"  horiz-adv-x="1024" />

    
    <glyph glyph-name="lujing" unicode="&#59146;" d="M557.2608 540.7744h236.032L230.7072-128l187.5456 467.2H204.8L414.976 896H819.2z"  horiz-adv-x="1024" />

    
    <glyph glyph-name="gongyinglian" unicode="&#59427;" d="M529.595996 171.743179a214.882462 214.882462 0 1 0 214.829949 214.829949 215.092513 215.092513 0 0 0-214.829949-214.829949z m0 359.003898a144.173949 144.173949 0 1 1 144.147692-144.173949 144.331487 144.331487 0 0 1-144.147692 144.173949zM146.357432 603.398564a146.300718 146.300718 0 1 0 146.248205 146.248205 146.458256 146.458256 0 0 0-146.248205-146.248205z m0 221.866667a75.618462 75.618462 0 1 1-0.078769-151.236923 75.618462 75.618462 0 0 1 0.078769 151.236923z m524.419282-205.745231a130.153026 130.153026 0 1 0 0 260.332308 130.153026 130.153026 0 0 0 0-260.332308z m0 189.597538a59.470769 59.470769 0 1 1 0-118.941538 59.470769 59.470769 0 0 1 0 118.941538z m238.014359-641.417846a138.24 138.24 0 1 0 0 276.48 138.24 138.24 0 0 0 0-276.48z m0 205.718975a67.531487 67.531487 0 1 1 0-135.062975 67.531487 67.531487 0 0 1 0 135.062975z m-177.493334-492.150154a134.196513 134.196513 0 1 0 134.196513 134.170256 134.354051 134.354051 0 0 0-134.196513-134.170256z m0 197.658256a63.514256 63.514256 0 1 1 0-127.002256 63.514256 63.514256 0 0 1 0 127.002256zM146.357432-42.141538a138.24 138.24 0 1 0 138.187487 138.24 138.397538 138.397538 0 0 0-138.187487-138.213744z m0 205.771487a67.531487 67.531487 0 1 1-0.078769-135.062975 67.531487 67.531487 0 0 1 0.078769 135.062975zM397.473739 472.772923c-9.084718 0-17.854359 3.492103-24.418461 9.819898l-171.716923 163.84a35.446154 35.446154 0 0 0 48.836923 51.331282l171.716923-164.076308a35.341128 35.341128 0 0 0-24.418462-60.914872z m192.196924 47.655385c-5.041231 0-10.003692 1.050256-14.572308 3.150769a35.314872 35.314872 0 0 0-17.801846 46.788923l47.786666 105.183179a35.393641 35.393641 0 0 0 64.512-29.118358l-47.629128-105.209436c-5.750154-12.681846-18.379487-20.821333-32.295384-20.795077z m220.763897-219.818667a33.608205 33.608205 0 0 0-7.273026 0.787692l-103.634051 21.714052a35.341128 35.341128 0 1 0 14.519795 69.185641l103.634051-21.687795a35.393641 35.393641 0 0 0-7.246769-69.99959z m-122.381128-231.634051c-12.603077 0-24.260923 6.695385-30.562462 17.591795l-72.493948 124.770461a35.341128 35.341128 0 1 0 61.124923 35.498667l72.467692-124.744205a35.314872 35.314872 0 0 0-30.536205-53.116718zM225.783073 126.162051a35.341128 35.341128 0 0 0-21.635282 63.330462l157.249641 121.514666a35.341128 35.341128 0 1 0 43.191795-55.926153l-157.223385-121.514667a35.131077 35.131077 0 0 0-21.582769-7.404308z"  horiz-adv-x="1050" />

    
    <glyph glyph-name="dingweiweizhi" unicode="&#59116;" d="M385.8 832.1C182.1 832.1 17 666.2 17 461.1c0-102.5 41.3-195.2 108.1-262.3l260.7-262.3 260.7 262.3c69.2 69.8 108.1 164 108.1 262.3-0.2 205-165.3 371-368.8 371z m0-535.9c-43.7 0-85.5 17.6-116.1 48.5-30.6 30.9-47.9 72.7-47.9 116.4s17 85.5 47.9 116.4c30.6 30.9 72.4 48.2 116.1 48.5 43.7 0 85.5-17.6 116.1-48.5 30.6-30.9 47.9-72.7 47.9-116.4 0.3-43.7-17-85.5-47.9-116.4-30.9-30.9-72.7-48.2-116.1-48.5z m0 0"  horiz-adv-x="1024" />

    
    <glyph glyph-name="qiye" unicode="&#58881;" d="M928 64h-32V512c0 70.4-57.6 128-128 128H576v64c0 70.4-57.6 128-128 128H192c-70.4 0-128-57.6-128-128v-640H32c-17.92 0-32-14.08-32-32s14.08-32 32-32h896c17.92 0 32 14.08 32 32s-14.08 32-32 32zM512 640v-576H128V704c0 35.2 28.8 64 64 64h256c35.2 0 64-28.8 64-64v-64z m320-576H576V576h192c35.2 0 64-28.8 64-64v-448zM416 640H224c-17.92 0-32-14.08-32-32s14.08-32 32-32h192c17.92 0 32 14.08 32 32s-14.08 32-32 32z m0-192H224c-17.92 0-32-14.08-32-32s14.08-32 32-32h192c17.92 0 32 14.08 32 32s-14.08 32-32 32z m0-192H224c-17.92 0-32-14.08-32-32s14.08-32 32-32h192c17.92 0 32 14.08 32 32s-14.08 32-32 32z m320 192h-64c-17.92 0-32-14.08-32-32s14.08-32 32-32h64c17.92 0 32 14.08 32 32s-14.08 32-32 32z m0-192h-64c-17.92 0-32-14.08-32-32s14.08-32 32-32h64c17.92 0 32 14.08 32 32s-14.08 32-32 32z"  horiz-adv-x="1024" />

    
    <glyph glyph-name="xingzhuang" unicode="&#58880;" d="M257.5358 213.463827v144.541205a39.384524 39.384524 0 0 1-78.769049 0v-144.541205a39.384524 39.384524 0 0 1 78.769049 0z m172.622371 183.92573a39.384524 39.384524 0 0 1-39.384525-39.384525v-276.873207a39.384524 39.384524 0 0 1 78.769049 0v276.873207a39.384524 39.384524 0 0 1-39.423909 39.384525z m340.36106-361.15609A434.726381 434.726381 0 0 0 512.077982-49.230951a39.384524 39.384524 0 0 1 0-78.769049 529.800624 529.800624 0 0 1 74.830596 5.513833 511.250512 511.250512 0 0 1 230.517622 95.704395 39.384524 39.384524 0 0 1-46.946353 63.015239zM1024.0768 383.998818A511.998818 511.998818 0 1 1 313.225517-87.827785a35.446072 35.446072 0 0 1 15.281196-3.150762 39.384524 39.384524 0 0 1 13.469507 2.756917 17.880574 17.880574 0 0 1 3.938453 1.969226 32.531617 32.531617 0 0 1 7.601213 5.119988 19.416571 19.416571 0 0 1 3.544607 3.150762 30.995621 30.995621 0 0 1 6.143986 9.058441 37.69099 37.69099 0 0 1 4.489836 17.329191V433.229474h71.128451a39.384524 39.384524 0 0 1 0 78.769049H368.048775V651.025895a205.587218 205.587218 0 0 0 56.162332 20.479952 39.384524 39.384524 0 0 1-6.301524 78.375204c-4.253529-0.393845-105.511141-9.058441-218.150881-132.725848a39.384524 39.384524 0 0 1 2.52061-55.532179 40.172215 40.172215 0 0 1 26.545169-10.239976 38.872526 38.872526 0 0 1 29.105164 12.996893c10.712591 11.421512 21.188874 22.055334 31.50762 31.113774v-83.495192H193.535947a39.384524 39.384524 0 0 1 0-78.769049h95.743779v-420.626722A434.371921 434.371921 0 1 0 894.107869 181.562363h-79.556739a33.634384 33.634384 0 0 0-33.752538 33.476845V285.537507h13.193816a39.384524 39.384524 0 0 1 39.384524 39.384525V546.263059a35.052227 35.052227 0 0 1-1.378458 7.089215 38.714988 38.714988 0 0 1-4.607989 30.326084 394.475397 394.475397 0 0 1-120.752952 123.667407 39.384524 39.384524 0 1 1-42.692825-66.166002 302.670071 302.670071 0 0 0 63.487853-55.532179h-129.96893l19.101494 101.612073a39.384524 39.384524 0 0 1-77.429975 14.572274l-27.884243-148.085812c-0.236307-1.181536 0-2.363071 0-3.938452a22.37041 22.37041 0 0 1-0.708922-3.544608v-221.341027a39.384524 39.384524 0 0 1 39.384525-39.384525h6.813522v-93.341323a208.107827 208.107827 0 0 0-25.166711-98.855156 39.660216 39.660216 0 0 1 15.75381-53.562954 40.290369 40.290369 0 0 1 18.786418-4.726143 39.384524 39.384524 0 0 1 34.618997 20.479953 286.798107 286.798107 0 0 1 34.737151 136.6643V285.537507h66.362924v-70.498299a112.560971 112.560971 0 0 1 112.521586-112.245894h103.620684c1.496612 0 2.756917 0.78769 4.17476 0.78769a59.549401 59.549401 0 0 1 8.428288 1.575381 37.297145 37.297145 0 0 1 6.301524 3.150762 25.206096 25.206096 0 0 1 6.459062 4.332298 25.757479 25.757479 0 0 1 5.277526 5.907678c0.984613 1.181536 2.323687 1.969226 3.150762 3.150762A512.27451 512.27451 0 0 1 1024.0768 383.998818z m-427.83409-19.692262a39.660216 39.660216 0 0 1-6.813522-1.575381V506.878535h165.139311v-142.571979h-158.325789z"  horiz-adv-x="1024" />

    
    <glyph glyph-name="shoufei" unicode="&#59094;" d="M105.694-125.605H916.31c52.598 0 84.236 42.118 84.236 84.236V685.012c0 52.597-42.118 84.236-84.236 84.236h-52.597C853.133 842.904 800.536 889.812 726.781 889.812H295.223c-73.656 0-126.353-46.908-136.832-120.564h-52.598c-49.403-1.697-84.235-31.539-84.235-84.236v-726.381c-0.1-42.118 31.538-84.236 84.136-84.236z m832.673 77.45c0-10.48-22.057-16.27-22.057-16.27H95.613c-10.48 0-14.87 16.27-14.87 16.27V522.33h847.045l11.977-0.4-1.398-570.086zM101.402 706.07h56.49l1.397-42.118c0-21.059 17.665-40.62 34.932-40.62 21.059 0 37.826 19.561 37.826 40.62v112.48c0 31.539 21.059 52.598 52.597 52.598h453.714c31.538 0 51.6-21.06 51.6-63.177l2.893-106.691c0-21.06 16.768-38.126 37.827-37.827 23.554 0.4 31.538 21.459 31.538 42.517l1.397 42.118h60.881c10.48 0 10.48-10.48 10.48-10.48v-105.294H92.619c-10.48 0-10.48 0-10.48 10.58v94.715s0 10.48 10.48 10.48h8.783z m-4.391 0M350.116 710.363h313.488c19.861 0 42.118 9.481 43.016 29.342 1.397 29.742-23.654 35.73-40.72 35.73H350.115c-21.059 0-39.024-12.375-39.223-33.434-0.1-18.664 18.164-31.638 39.223-31.638z m347.422-277.958c0 4.392-4.89 11.877-12.376 17.965-10.58 8.584-26.349 14.173-40.222 3.094 0 0-51.2-64.174-73.656-94.715-19.063-25.85-33.035-42.117-54.094-73.656L413.393 432.505c-10.48 21.06-37.128 27.347-54.793 14.672-16.867-12.177-18.365-30.042-8.284-46.21 12.475-19.961 27.247-42.018 43.515-63.177 17.066-22.156 28.544-37.227 49.304-64.574h-71.86c-21.458 1.098-31.638-8.483-31.539-22.456 0-21.059 10.48-28.744 42.118-28.744h94.715v-31.538H371.175c-17.266 0-31.439-13.873-31.538-31.04-0.2-21.358 10.28-32.037 42.117-32.037h94.715v-73.656c0-10.48 10.28-42.118 40.621-42.118 28.345 0 40.62 21.06 40.62 42.118v73.257h97.61c32.137 0 42.517 9.481 42.118 31.339-0.4 22.855-19.462 32.237-42.318 32.237h-97.41v31.538h97.61c31.538 0 42.118 4.79 42.118 25.85 0 21.059-10.48 25.85-42.118 25.85l-62.777 1.396 94.315 125.954c11.079 14.871 10.68 20.66 10.68 31.24z m0 0"  horiz-adv-x="1024" />

    
    <glyph glyph-name="tuisong" unicode="&#58971;" d="M720.688 152.674H56.864C37.642 152.674 22 168.269 22 187.538s15.642 34.863 34.864 34.863h663.824c19.223 0 34.864-15.595 34.864-34.863 0-19.269-15.642-34.864-34.864-34.864zM396.361 388.641H56.864C37.642 388.641 22 404.259 22 423.527c0 19.27 15.642 34.864 34.864 34.864h339.498c19.222 0 34.863-15.595 34.863-34.864 0-19.268-15.642-34.886-34.864-34.886zM254.503 629.294H56.864C37.642 629.294 22 644.912 22 664.158c0 19.269 15.642 34.887 34.864 34.887h197.639c19.27 0 34.864-15.618 34.864-34.887 0-19.246-15.595-34.864-34.864-34.864zM722.102 153.805c-9.282 0-18.187 3.675-24.688 10.271l-174.507 174.46c-13.616 13.616-13.616 35.712 0 49.328 13.615 13.615 35.711 13.615 49.327 0l174.46-174.508c13.663-13.615 13.663-35.712 0-49.327a34.647 34.647 0 0 0-24.592-10.224zM918.751 866.438H277.73v-69.751h641.021c7.444-0.024 13.475-6.055 13.475-13.498v-798.38c0-7.443-6.03-13.474-13.475-13.521H277.07v-69.727h641.681c45.982 0 83.249 37.266 83.249 83.248v798.38c0 45.983-37.267 83.249-83.249 83.249zM277.73 796.687c-19.223 0-34.864 15.617-34.864 34.887 0 19.246 15.642 34.864 34.864 34.864m0-964.876c-19.223 0-34.864 15.641-34.864 34.863 0 19.27 15.642 34.863 34.864 34.863"  horiz-adv-x="1024" />

    
    <glyph glyph-name="danzhengjiesuan" unicode="&#59025;" d="M845.44-56.96h-640a96 96 0 0 0-96 96V695.04a96 96 0 0 0 96 96h640a96 96 0 0 0 96-96v-656a96 96 0 0 0-96-96z m-640 784a32 32 0 0 1-32-32v-656a32 32 0 0 1 32-32h640a32 32 0 0 1 32 32V695.04a32 32 0 0 1-32 32zM645.12 434.56H406.4a32 32 0 0 0 0 64h239.36a32 32 0 0 0 0-64zM645.12 320H406.4a32 32 0 0 0 0 64h239.36a32 32 0 0 0 0-64zM759.04 95.36H292.48a32 32 0 0 0 0 64h467.2a32 32 0 0 0 0-64zM525.44 226.56a32 32 0 0 0-32 32V466.56a32 32 0 0 0 64 0V256a32 32 0 0 0-32-29.44zM525.44 442.88a32 32 0 0 0-22.4 9.6L406.4 549.12a32 32 0 0 0 45.44 45.44l73.6-74.24 74.24 74.24a32 32 0 1 0 45.44-45.44L548.48 452.48a32 32 0 0 0-23.04-9.6z"  horiz-adv-x="1024" />

    
    <glyph glyph-name="baoguandan" unicode="&#59081;" d="M713.722705 481.064689H307.679578c-18.683579 0-33.870231-15.186652-33.870231-33.870231s15.186652-33.870231 33.870231-33.870231h406.043127c18.683579 0 33.870231 15.186652 33.870231 33.870231-0.099912 18.683579-15.186652 33.870231-33.870231 33.870231m0-203.021563H307.679578c-18.683579 0-33.870231-15.186652-33.870231-33.870231s15.186652-33.870231 33.870231-33.870231h406.043127c18.683579 0 33.870231 15.186652 33.870231 33.870231-0.099912 18.683579-15.186652 33.870231-33.870231 33.870231M849.003805 887.007903H172.398478c-55.950824 0-101.510782-45.559957-101.510782-101.510781v-811.98634c0-55.950824 45.559957-101.510782 101.510782-101.510782h676.705239c55.950824 0 101.510782 45.559957 101.510782 101.510782V785.497122c-0.099912 55.950824-45.659869 101.510782-101.610694 101.510781M307.679578 819.367353h406.043127v-101.510782H307.679578V819.367353z m575.194458-845.856571c0-18.683579-15.186652-33.870231-33.870231-33.870232H172.398478c-18.683579 0-33.870231 15.186652-33.870231 33.870232V785.497122c0 18.683579 15.186652 33.870231 33.870231 33.870231h67.64055v-101.510782c0-37.367158 30.373305-67.64055 67.64055-67.64055h406.043127c37.367158 0 67.64055 30.373305 67.64055 67.64055V819.367353h67.64055c18.683579 0 33.870231-15.186652 33.870231-33.870231v-811.98634z"  horiz-adv-x="1024" />

    
    <glyph glyph-name="feiquanping" unicode="&#58905;" d="M237.568 597.700923L0 835.347692 60.652308 896l236.544-238.670769 90.584615 90.584615v-240.718769H146.983385l90.584615 90.584615zM59.628308-126.660923l237.568 237.568 90.584615-90.584615V261.12H146.983385l90.584615-90.584615L0-67.032615l59.628308-59.628308zM876.701538 507.195077l-90.584615 90.584615L1023.842462 835.190154 963.032615 896 725.464615 658.432l-90.584615 90.584615v-241.821538h241.821538z m85.228308-634.88l60.731077 60.652308L785.092923 170.535385l90.584615 90.584615h-241.821538v-241.821538l90.584615 90.584615 237.489231-237.646769z"  horiz-adv-x="1024" />

    
    <glyph glyph-name="quanping" unicode="&#59127;" d="M628.053333 267.946667a32 32 0 0 0 45.226667 0l158.72-158.634667V202.666667l0.298667 4.352A32 32 0 0 0 896 202.666667v-181.333334l-0.341333-3.84a21.333333 21.333333 0 0 0-20.992-17.493333h-181.333334l-4.352 0.298667a32 32 0 0 0-27.648 31.701333l0.298667 4.352a32 32 0 0 0 31.701333 27.648h93.44l-158.72 158.72-3.114666 3.584a32 32 0 0 0 3.114666 41.642667z m-232.106666 0a32 32 0 0 0 3.114666-41.642667l-3.114666-3.584-158.72-158.72h93.44a32 32 0 0 0 31.701333-27.648l0.298667-4.352a32 32 0 0 0-27.648-31.701333L330.666667 0H149.333333a21.333333 21.333333 0 0 0-20.992 17.493333L128 21.333333v181.333334a32 32 0 0 0 63.701333 4.352l0.298667-4.352v-93.354667l158.72 158.634667a32 32 0 0 0 45.226667 0zM874.666667 768a21.333333 21.333333 0 0 0 20.992-17.493333L896 746.666667v-181.333334a32 32 0 0 0-63.701333-4.352L832 565.333333V658.688L673.28 500.053333a32 32 0 0 0-48.341333 41.642667l3.114666 3.584 158.72 158.72h-93.44a32 32 0 0 0-31.701333 27.648L661.333333 736a32 32 0 0 0 27.648 31.701333L693.333333 768h181.333334zM330.666667 768l4.352-0.298667a32 32 0 0 0 27.648-31.701333l-0.298667-4.352a32 32 0 0 0-31.701333-27.648H237.226667l158.72-158.72 3.114666-3.584a32 32 0 0 0-48.341333-41.642667L192 658.688V565.333333l-0.298667-4.352A32 32 0 0 0 128 565.333333V746.666667l0.341333 3.84A21.333333 21.333333 0 0 0 149.333333 768h181.333334z"  horiz-adv-x="1024" />

    
    <glyph glyph-name="tuoyuan1" unicode="&#58993;" d="M791.27915 896C354.274044 896 0 666.776321 0 384s354.274044-512 791.27915-512 791.27915 229.223679 791.27915 512S1228.284256 896 791.27915 896z m0-977.459362c-411.306196 0-744.738512 208.417276-744.738512 465.459362S379.972954 849.459362 791.27915 849.459362s744.738512-208.399614 744.738512-465.459362S1202.585346-81.459362 791.27915-81.459362z"  horiz-adv-x="1582" />

    
    <glyph glyph-name="xuxianjiantou" unicode="&#59088;" d="M2509.262617-127.699111a61.983104 61.983104 0 0 0-24.296776 13.991332 58.823771 58.823771 0 0 0-15.044442 22.190553v33.925218a61.381327 61.381327 0 0 0 15.044442 22.566665l451.333285 417.708954-448.098729 418.009844a52.65555 52.65555 0 0 0-18.579887 37.611107V840.786895a52.65555 52.65555 0 0 0 18.579887 38.06244 63.487549 63.487549 0 0 0 42.951884 16.774554 62.50966 62.50966 0 0 0 42.876662-16.774554l491.426724-457.050172a51.376772 51.376772 0 0 0 0-78.45677l-494.586057-457.351061a61.757438 61.757438 0 0 0-24.371997-13.991332z m-402.965401 488.493058a112.833321 112.833321 0 1 0 112.833321-112.833321 112.833321 112.833321 0 0 0-112.833321 112.682877z m-526.555499 0a112.833321 112.833321 0 1 0 112.833322-112.833321 112.833321 112.833321 0 0 0-112.833322 112.682877z m-526.555498 0a112.833321 112.833321 0 1 0 112.833321-112.833321 112.833321 112.833321 0 0 0-112.833321 112.682877z m-526.555498 0a112.833321 112.833321 0 1 0 112.833321-112.833321 112.833321 112.833321 0 0 0-112.833321 112.682877z m-526.555499 0a112.833321 112.833321 0 1 0 112.833321-112.833321 112.833321 112.833321 0 0 0-112.833321 112.682877z"  horiz-adv-x="3085" />

    
    <glyph glyph-name="right" unicode="&#58896;" d="M960.198 386.787L514.811 831.951v-243.622H62.469v-394.541h452.342v-257.837l445.387 450.836z m0 0"  horiz-adv-x="1024" />

    
    <glyph glyph-name="liti" unicode="&#58906;" d="M172.6 140.6L505-25.6c4.7-2.4 10.2-2.4 14.9 0l332.4 166.2c5.6 2.9 9.2 8.6 9.2 14.9V554.4c-0.1 3-1 5.9-2.6 8.5-0.5 0.9-1.3 1.3-1.9 2.1-1 1.1-1.6 2.4-2.8 3.1-0.6 0.4-1.4 0.4-2 0.8-0.5 0.2-0.7 0.7-1.2 0.9l-332.4 133c-4 1.5-8.3 1.5-12.4 0l-332.4-133c-0.5-0.2-0.7-0.8-1.1-1-0.7-0.3-1.4-0.3-2-0.7-1.2-0.8-1.9-2-2.8-3.1-0.6-0.7-1.4-1.2-1.9-2.1-1.6-2.6-2.6-5.5-2.6-8.5v-398.9c0.1-6.3 3.6-12 9.2-14.9z m24.1 389.2l299.2-119.6v-394L196.7 165.8v364z m332.4-513.6v394l299.1 119.6v-364L529.1 16.2z m-16.7 653.2l287.7-115-287.7-115.1-287.6 115.1 287.6 115z"  horiz-adv-x="1024" />

    
    <glyph glyph-name="-" unicode="&#59023;" d="M917.9 603L525.3 794.8c-8.4 4.1-18.2 4.1-26.5 0L106.1 603c-10.4-5.1-16.9-15.6-16.9-27.1v-383.7c0-11.6 6.5-22.1 16.9-27.1l392.7-191.8c4.2-2.1 8.7-3.1 13.3-3.1s9.1 1 13.3 3.1L917.9 165c10.4 5.1 16.9 15.6 16.9 27.1V575.8c0.1 11.6-6.5 22.1-16.9 27.2zM512 734l362.5-177v-145.8L525.3 581.7c-8.4 4.1-18.2 4.1-26.5 0L149.5 411.2V557L512 734z m313-365.9L512 215.2 199 368.1 512 521l313-152.9zM512 34L149.5 211V325l349.2-170.5c4.2-2.1 8.7-3.1 13.3-3.1s9.1 1 13.3 3.1L874.5 325v-114L512 34z"  horiz-adv-x="1024" />

    
    <glyph glyph-name="litihuafangkong-ziyuan" unicode="&#59050;" d="M1018.631214 188.112711l-66.685035 39.75454a11.028679 11.028679 0 0 1-10.900438 0l-423.83469-251.351284a9.810394 9.810394 0 0 0-10.259236 0l-424.475893 251.351284a9.810394 9.810394 0 0 1-10.259236 0l-66.685034-39.75454a9.746274 9.746274 0 0 1 0-17.312461l500.77896-296.876643a11.028679 11.028679 0 0 1 10.900439 0l500.77896 296.876643a9.938635 9.938635 0 0 1 0.641203 17.312461z m0 0V393.938635l-66.685035 39.113337a11.028679 11.028679 0 0 1-10.900438 0l-423.83469-250.710081a9.810394 9.810394 0 0 0-10.259236 0L82.475922 433.051972a9.810394 9.810394 0 0 1-10.259236 0l-66.685034-39.113337a10.259236 10.259236 0 0 1 0-17.953663l500.77896-296.235442a11.028679 11.028679 0 0 1 10.900439 0l500.77896 296.235442a10.515717 10.515717 0 0 1 0.641203 17.953663z m0 0L5.531652 375.984972l500.77896-296.876644a11.028679 11.028679 0 0 1 10.900439 0l500.77896 296.876644a10.259236 10.259236 0 0 1 0 17.953663L517.211051 690.174076a9.810394 9.810394 0 0 1-10.259236 0L5.531652 393.938635a10.772198 10.772198 0 0 1 0-17.953663z m0 0"  horiz-adv-x="1024" />

    


  </font>
</defs>
</svg>
